<?xml version="1.0" encoding="iso-8859-1"?>
<!-- Generator: Adobe Illustrator 19.0.0, SVG Export Plug-In . SVG Version: 6.00 Build 0)  -->
<svg version="1.1" id="Capa_1" xmlns="http://www.w3.org/2000/svg" xmlns:xlink="http://www.w3.org/1999/xlink" x="0px" y="0px"
	 viewBox="0 0 512 512" style="enable-background:new 0 0 512 512;" xml:space="preserve">
<g>
	<g>
		<path d="M433.6,119.384c-1.515,1.301-3.349,2.155-5.333,2.453c-42.88,6.528-73.792-3.648-98.581-11.84
			c-15.253-5.013-28.395-9.365-41.685-9.365c-22.421,0-39.787,11.413-56.576,22.443c-3.904,2.56-7.701,5.056-11.456,7.339
			l-55.595,55.595c-7.616,7.616-9.493,19.2-4.672,28.821c4.245,8.512,12.8,13.803,22.315,13.803h8.533
			c5.803,0,11.243-1.92,15.723-5.547c4.075-3.328,8.768-7.232,13.781-11.435c27.328-22.848,49.408-40.789,64.192-46.336
			c1.237-0.469,2.475-0.683,3.755-0.683c2.517,0,5.013,0.896,6.976,2.603l154.176,133.611L512,275.928V70.488L433.6,119.384z"/>
	</g>
</g>
<g>
	<g>
		<path d="M96.491,292.632c-6.976,0-13.483,3.477-17.344,9.28l-11.648,17.472C65.216,322.797,64,326.829,64,330.947v4.843
			c0,11.52,9.323,20.843,20.843,20.843c6.976,0,13.483-3.477,17.344-9.28l11.648-17.472c2.283-3.413,3.499-7.445,3.499-11.563
			v-4.843C117.333,301.955,108.011,292.632,96.491,292.632z"/>
	</g>
</g>
<g>
	<g>
		<path d="M139.157,313.965h-0.725c-6.571,0-12.736,3.093-16.683,8.341l-21.568,28.779C97.472,354.691,96,359.064,96,363.587v4.203
			c0,11.52,9.323,20.843,20.843,20.843h0.725c6.571,0,12.736-3.093,16.683-8.341l21.568-28.779
			c2.709-3.605,4.181-7.979,4.181-12.501v-4.203C160,323.288,150.677,313.965,139.157,313.965z"/>
	</g>
</g>
<g>
	<g>
		<path d="M181.824,335.299h-0.725c-6.571,0-12.736,3.093-16.683,8.341l-21.568,28.779c-2.709,3.605-4.181,7.979-4.181,12.501v4.203
			c0,11.52,9.323,20.843,20.843,20.843h0.725c6.571,0,12.736-3.093,16.683-8.341l21.568-28.779
			c2.709-3.605,4.181-7.979,4.181-12.501v-4.203C202.667,344.621,193.344,335.299,181.824,335.299z"/>
	</g>
</g>
<g>
	<g>
		<path d="M224.491,356.632h-0.725c-6.571,0-12.736,3.093-16.683,8.341l-21.568,28.779c-2.709,3.605-4.181,7.979-4.181,12.501v4.203
			c0,11.52,9.323,20.843,20.843,20.843h0.725c6.571,0,12.736-3.093,16.683-8.341l21.568-28.779c2.709-3.605,4.16-8,4.16-12.501
			v-4.203h0.021C245.333,365.955,236.011,356.632,224.491,356.632z"/>
	</g>
</g>
<g>
	<g>
		<path d="M279.168,420.291l-19.307-16.448c-0.64,1.003-0.939,2.197-1.643,3.157l-13.717,18.283l14.357,13.312
			c4.565,4.544,11.307,4.288,15.339,0.256C279.509,433.539,281.621,423.363,279.168,420.291z"/>
	</g>
</g>
<g>
	<g>
		<path d="M441.579,323.928L286.229,187.907c-13.675,7.637-35.776,26.112-52.48,40.085c-5.077,4.267-9.835,8.235-13.973,11.605
			c-8.341,6.805-18.432,10.368-29.205,10.368h-8.533c-17.664,0-33.515-9.813-41.408-25.6c-8.96-17.835-5.483-39.296,8.661-53.44
			l59.563-58.731c3.051-1.856,6.144-3.883,9.28-5.931c-33.451-6.827-71.467-7.296-113.941-0.619
			c-21.483,3.477-43.221-2.56-59.755-16.32L0,70.061v205.845l55.467,23.061l5.931-8.896c7.808-11.733,20.928-18.773,35.093-18.773
			c15.893,0,29.589,8.939,36.779,21.952c1.707-0.235,3.392-0.619,5.141-0.619c16.405,0,30.251,8.939,37.483,21.952
			c1.749-0.235,3.435-0.619,5.184-0.619c16.405,0,30.251,8.939,37.483,21.952c1.728-0.213,3.413-0.619,5.184-0.619h0.747
			c23.253,0,42.176,18.923,42.176,42.176v4.16l26.773,22.763c0.021,0.043,0.064,0.064,0.107,0.107l10.197,8.661
			c5.931,4.736,13.696,7.467,21.611,7.467c8.811,0,15.979-7.168,15.979-15.979c0-4.757-2.112-9.216-5.76-12.267l-97.088-80.896
			c-4.523-3.776-5.141-10.496-1.365-15.019c3.776-4.501,10.496-5.141,15.04-1.344l119.936,99.947
			c3.307,2.731,7.445,4.224,11.733,4.224h3.136c10.133,0,18.347-8.235,18.347-18.347c0-5.333-2.24-10.325-6.208-13.824
			l-117.952-98.283c-4.523-3.776-5.141-10.496-1.344-15.04c3.797-4.544,10.517-5.099,15.019-1.365l117.568,97.963
			c0.192,0.149,0.384,0.32,0.555,0.469l1.749,1.451c3.328,2.795,7.552,4.309,11.883,4.309h2.859c10.219,0,18.56-8.341,18.56-18.56
			C448,332.589,445.675,327.491,441.579,323.928z"/>
	</g>
</g>
<g>
</g>
<g>
</g>
<g>
</g>
<g>
</g>
<g>
</g>
<g>
</g>
<g>
</g>
<g>
</g>
<g>
</g>
<g>
</g>
<g>
</g>
<g>
</g>
<g>
</g>
<g>
</g>
<g>
</g>
</svg>
